<?xml version="1.0" encoding="UTF-8" standalone="no"?>
<!-- Created with Inkscape (http://www.inkscape.org/) -->

<svg
   xmlns:dc="http://purl.org/dc/elements/1.1/"
   xmlns:cc="http://creativecommons.org/ns#"
   xmlns:rdf="http://www.w3.org/1999/02/22-rdf-syntax-ns#"
   xmlns:svg="http://www.w3.org/2000/svg"
   xmlns="http://www.w3.org/2000/svg"
   xmlns:sodipodi="http://sodipodi.sourceforge.net/DTD/sodipodi-0.dtd"
   xmlns:inkscape="http://www.inkscape.org/namespaces/inkscape"
   width="1202"
   height="902"
   viewBox="0 0 1202 902"
   id="svg2"
   version="1.1"
   inkscape:version="0.91 r13725"
   sodipodi:docname="complex_circuit.svg">
  <defs
     id="defs4" />
  <sodipodi:namedview
     id="base"
     pagecolor="#ffffff"
     bordercolor="#666666"
     borderopacity="1.0"
     inkscape:pageopacity="0.0"
     inkscape:pageshadow="2"
     inkscape:zoom="0.98994949"
     inkscape:cx="632.59599"
     inkscape:cy="493.2812"
     inkscape:document-units="px"
     inkscape:current-layer="layer1"
     showgrid="false"
     units="px"
     inkscape:window-width="2560"
     inkscape:window-height="1341"
     inkscape:window-x="0"
     inkscape:window-y="28"
     inkscape:window-maximized="1"
     fit-margin-top="0"
     fit-margin-left="0"
     fit-margin-right="0"
     fit-margin-bottom="0"
     showguides="false"
     inkscape:guide-bbox="true"
     inkscape:snap-nodes="true"
     inkscape:snap-bbox="true"
     inkscape:bbox-paths="false">
    <sodipodi:guide
       position="785.89868,843.47738"
       orientation="542.85715,0"
       id="guide4170" />
    <sodipodi:guide
       position="895,942.85715"
       orientation="0,1"
       id="guide4178" />
    <sodipodi:guide
       position="942.14286,486.42857"
       orientation="1,0"
       id="guide4180" />
    <sodipodi:guide
       position="642.85715,236.42857"
       orientation="0,1"
       id="guide4182" />
    <sodipodi:guide
       position="984.14112,335.37065"
       orientation="0,1"
       id="guide4184" />
    <sodipodi:guide
       position="964.44315,434.61813"
       orientation="0,1"
       id="guide4186" />
    <sodipodi:guide
       position="599.02046,535.38085"
       orientation="0,1"
       id="guide4188" />
    <sodipodi:guide
       position="1016.2135,756.60426"
       orientation="0,1"
       id="guide4190" />
    <sodipodi:guide
       position="713.1677,592.95955"
       orientation="1,0"
       id="guide4234" />
    <sodipodi:guide
       position="819.23372,684.88343"
       orientation="0,1"
       id="guide4236" />
    <sodipodi:guide
       position="612.85715,572.5"
       orientation="1,0"
       id="guide4253" />
    <sodipodi:guide
       position="514.16765,605.08138"
       orientation="1,0"
       id="guide4255" />
    <sodipodi:guide
       position="414.28572,550"
       orientation="1,0"
       id="guide4257" />
  </sodipodi:namedview>
  <metadata
     id="metadata7">
    <rdf:RDF>
      <cc:Work
         rdf:about="">
        <dc:format>image/svg+xml</dc:format>
        <dc:type
           rdf:resource="http://purl.org/dc/dcmitype/StillImage" />
        <dc:title />
      </cc:Work>
    </rdf:RDF>
  </metadata>
  <g
     inkscape:label="Layer 1"
     inkscape:groupmode="layer"
     id="layer1"
     transform="translate(1,1)">
    <rect
       style="fill:none;fill-rule:evenodd;stroke:#000000;stroke-width:2;stroke-linecap:butt;stroke-linejoin:miter;stroke-miterlimit:4;stroke-dasharray:none;stroke-opacity:1"
       id="rect3335"
       width="1200"
       height="900"
       x="0"
       y="0" />
    <path
       style="fill:none;fill-opacity:1;stroke:#000000;stroke-width:0.91243154;stroke-miterlimit:4;stroke-dasharray:none;stroke-opacity:1"
       d="m 785.80357,757.68452 -0.20643,-47.60628 c 0,-23.93565 -21.07106,-43.33934 -47.06352,-43.33934 -25.99247,0 -47.06353,19.40369 -47.06353,43.33934 L 690.45138,754.57 c 0,23.93565 -21.07106,43.3393 -47.06352,43.3393 -25.99248,0 -47.06353,-19.40365 -47.06353,-43.3393 L 596.053,710.0782 c 0,-23.93565 -21.07105,-43.33934 -47.06351,-43.33934 -25.99247,0 -47.06353,19.40369 -47.06353,43.33934 l -0.28134,43.81268 c 0,23.93565 -21.07105,43.33935 -47.06351,43.33935 -25.99247,0 -47.06354,-19.4037 -47.06354,-43.33935 l -2.61644,-226.27796 0,-49.00429 c 0,-27.83911 13.62234,-50.25111 47.84277,-50.25111 l 64.267,0 c 34.22044,0 48.53041,22.41265 48.32301,50.25111 l -0.36831,49.439 c 0.4721,28.27384 23.9355,50.68586 52.0367,50.68586 l 38.78173,0 188.39455,-0.0493"
       id="inLeft"
       inkscape:connector-curvature="0" />
    <path
       style="fill:none;fill-opacity:1;stroke:#000000;stroke-width:0.91243154;stroke-miterlimit:4;stroke-dasharray:none;stroke-opacity:1"
       d="m 844.17858,578.68419 151.2249,-0.0395 c 25.99242,0 47.06362,-19.40369 47.06362,-43.33934 0,-23.93565 -21.0712,-43.33933 -47.06362,-43.33933 l -54.32765,0.10728 c -25.99246,0 -47.06352,-19.40369 -47.06352,-43.33933 0,-23.93565 21.07106,-43.33934 47.06352,-43.33934 l 54.45126,-0.038 c 25.99241,0 47.06361,-19.40369 47.06361,-43.33934 0,-23.93564 -21.0712,-43.33933 -47.06361,-43.33933 l -54.2182,0.10736 c -25.99246,0 -47.06351,-19.40368 -47.06351,-43.33933 0,-23.93566 21.07105,-43.33934 47.06351,-43.33934 l 27.4026,-0.12074 c 41.34181,0 74.62431,-29.00967 74.62431,-65.04412 l 0,-63.43024 c 0,-36.034445 -33.2825,-65.044124 -74.62431,-65.044124 l -44.57097,0 -442.37852,-1.829982 -35.82304,32.988329 0.26288,60.628017"
       id="outRight"
       inkscape:connector-curvature="0" />
    <path
       style="fill:none;fill-opacity:1;stroke:#000000;stroke-width:0.91243154;stroke-miterlimit:4;stroke-dasharray:none;stroke-opacity:1"
       d="m 446.20184,130.25379 0.24605,56.7446 c 0,23.93565 21.07105,43.33933 47.06353,43.33933 25.99246,0 47.06352,-19.40368 47.06352,-43.33933 l 1.01871,-44.49177 c 0,-23.93565 21.07106,-43.33933 47.06353,-43.33933 25.99246,0 47.06352,19.40368 47.06352,43.33933 l 0.27133,44.49177 c 0,23.93565 21.07105,43.33933 47.06352,43.33933 25.99246,0 47.06352,-19.40368 47.06352,-43.33933 l 0.28134,-43.81268 c 0,-23.93565 21.07105,-43.33933 47.06352,-43.33933 25.99246,0 47.06352,19.40368 47.06352,43.33933 l 2.61646,226.27796 0,49.00428 c 0,27.83911 -13.62235,50.2511 -47.84277,50.2511 l -64.267,0 c -34.22044,0 -48.53042,-22.41264 -48.32302,-50.2511 l 0.36831,-49.439 c -0.47211,-28.27384 -23.9355,-50.68585 -52.0367,-50.68585 l -38.78173,0 -148.19871,0.0387"
       id="inRight"
       inkscape:connector-curvature="0" />
    <path
       style="fill:none;fill-opacity:1;stroke:#000000;stroke-width:0.91243154;stroke-miterlimit:4;stroke-dasharray:none;stroke-opacity:1"
       d="m 428.06229,318.3818 -191.42073,0.05 c -25.9925,0 -47.0635,19.40369 -47.0635,43.33935 0,23.93564 21.071,43.33932 47.0635,43.33932 l 54.32763,-0.10727 c 25.99248,0 47.06354,19.40367 47.06354,43.33932 0,23.93565 -21.07106,43.33934 -47.06354,43.33934 l -54.45125,0.038 c -25.9925,0 -47.06348,19.40368 -47.06348,43.33932 0,23.93565 21.07098,43.33934 47.06348,43.33934 l 54.2182,-0.10735 c 25.99247,0 47.06352,19.40368 47.06352,43.33933 0,23.93565 -21.07105,43.33932 -47.06352,43.33932 l -27.4026,0.12074 c -41.34186,0 -74.62434,29.00968 -74.62434,65.04413 l 0,63.43024 c 0,36.03442 33.28248,65.0441 74.62434,65.0441 l 44.57097,0 442.37852,1.82997 35.82305,-32.98834 -0.30251,-69.76628"
       id="outLeft"
       inkscape:connector-curvature="0" />
    <text
       xml:space="preserve"
       style="font-style:normal;font-weight:bold;font-size:40px;line-height:125%;font-family:sans-serif;letter-spacing:0px;word-spacing:0px;fill:#000000;fill-opacity:1;stroke:#3d3d3d;stroke-width:1px;stroke-linecap:butt;stroke-linejoin:miter;stroke-opacity:1;-inkscape-font-specification:'sans-serif Bold';font-stretch:normal;font-variant:normal;"
       x="803.57141"
       y="779.57141"
       id="text4294"
       sodipodi:linespacing="125%"><tspan
         sodipodi:role="line"
         id="tspan4296"
         x="803.57141"
         y="779.57141">Black</tspan></text>
    <text
       xml:space="preserve"
       style="font-style:normal;font-weight:bold;font-size:40px;line-height:125%;font-family:sans-serif;letter-spacing:0px;word-spacing:0px;fill:#003dff;fill-opacity:1;stroke:#3d3d3d;stroke-width:1px;stroke-linecap:butt;stroke-linejoin:miter;stroke-opacity:1;-inkscape-font-specification:'sans-serif Bold';font-stretch:normal;font-variant:normal;"
       x="797.26031"
       y="620.19781"
       id="text4294-7"
       sodipodi:linespacing="125%"><tspan
         sodipodi:role="line"
         id="tspan4296-0"
         x="797.26031"
         y="620.19781">Blue</tspan></text>
    <text
       xml:space="preserve"
       style="font-style:normal;font-variant:normal;font-weight:bold;font-stretch:normal;font-size:40px;line-height:125%;font-family:sans-serif;-inkscape-font-specification:'sans-serif Bold';letter-spacing:0px;word-spacing:0px;fill:#f2ff00;fill-opacity:1;stroke:#3d3d3d;stroke-width:1px;stroke-linecap:butt;stroke-linejoin:miter;stroke-opacity:1"
       x="283.44998"
       y="143.10426"
       id="text4294-7-0"
       sodipodi:linespacing="125%"><tspan
         sodipodi:role="line"
         id="tspan4296-0-2"
         x="283.44998"
         y="143.10426">Yellow</tspan></text>
    <text
       xml:space="preserve"
       style="font-style:normal;font-variant:normal;font-weight:bold;font-stretch:normal;font-size:40px;line-height:125%;font-family:sans-serif;-inkscape-font-specification:'sans-serif Bold';letter-spacing:0px;word-spacing:0px;fill:#ffffff;fill-opacity:1;stroke:#3d3d3d;stroke-width:1px;stroke-linecap:butt;stroke-linejoin:miter;stroke-opacity:1"
       x="356.52469"
       y="301.2305"
       id="text4294-7-1"
       sodipodi:linespacing="125%"><tspan
         sodipodi:role="line"
         id="tspan4296-0-9"
         x="356.52469"
         y="301.2305">White</tspan></text>
    <ellipse
       style="fill:#000000;fill-opacity:1;stroke:#ffffff;stroke-width:1;stroke-miterlimit:4;stroke-dasharray:none;stroke-opacity:1"
       id="path4348"
       cx="844.24518"
       cy="578.50879"
       rx="8.3337584"
       ry="8.0812206" />
    <ellipse
       style="fill:#000000;fill-opacity:1;stroke:#ffffff;stroke-width:1;stroke-miterlimit:4;stroke-dasharray:none;stroke-opacity:1"
       id="path4348-4"
       cx="785.53015"
       cy="758.78973"
       rx="8.3337584"
       ry="8.0812206" />
    <ellipse
       style="fill:#000000;fill-opacity:1;stroke:#ffffff;stroke-width:1;stroke-miterlimit:4;stroke-dasharray:none;stroke-opacity:1"
       id="path4348-8"
       cx="429"
       cy="319.59244"
       rx="8.3337584"
       ry="8.0812206" />
    <ellipse
       style="fill:#000000;fill-opacity:1;stroke:#ffffff;stroke-width:1;stroke-miterlimit:4;stroke-dasharray:none;stroke-opacity:1"
       id="path4348-83"
       cx="447.88834"
       cy="129.27556"
       rx="8.3337584"
       ry="8.0812206" />
  </g>
</svg>
