<?xml version="1.0" encoding="UTF-8" standalone="no"?>
<!-- Created with Inkscape (http://www.inkscape.org/) -->

<svg
   xmlns:dc="http://purl.org/dc/elements/1.1/"
   xmlns:cc="http://creativecommons.org/ns#"
   xmlns:rdf="http://www.w3.org/1999/02/22-rdf-syntax-ns#"
   xmlns:svg="http://www.w3.org/2000/svg"
   xmlns="http://www.w3.org/2000/svg"
   xmlns:sodipodi="http://sodipodi.sourceforge.net/DTD/sodipodi-0.dtd"
   xmlns:inkscape="http://www.inkscape.org/namespaces/inkscape"
   width="1202"
   height="902"
   viewBox="0 0 1202 902"
   id="svg2"
   version="1.1"
   inkscape:version="0.91 r13725"
   sodipodi:docname="bigger_map.svg">
  <defs
     id="defs4" />
  <sodipodi:namedview
     id="base"
     pagecolor="#ffffff"
     bordercolor="#666666"
     borderopacity="1.0"
     inkscape:pageopacity="0.0"
     inkscape:pageshadow="2"
     inkscape:zoom="0.98994949"
     inkscape:cx="521.43976"
     inkscape:cy="484.04742"
     inkscape:document-units="px"
     inkscape:current-layer="layer1"
     showgrid="false"
     units="px"
     inkscape:window-width="1920"
     inkscape:window-height="1043"
     inkscape:window-x="2560"
     inkscape:window-y="0"
     inkscape:window-maximized="1"
     fit-margin-top="0"
     fit-margin-left="0"
     fit-margin-right="0"
     fit-margin-bottom="0" />
  <metadata
     id="metadata7">
    <rdf:RDF>
      <cc:Work
         rdf:about="">
        <dc:format>image/svg+xml</dc:format>
        <dc:type
           rdf:resource="http://purl.org/dc/dcmitype/StillImage" />
        <dc:title></dc:title>
      </cc:Work>
    </rdf:RDF>
  </metadata>
  <g
     inkscape:label="Layer 1"
     inkscape:groupmode="layer"
     id="layer1"
     transform="translate(1,1)">
    <rect
       style="fill:none;fill-rule:evenodd;stroke:#000000;stroke-width:2;stroke-linecap:butt;stroke-linejoin:miter;stroke-miterlimit:4;stroke-dasharray:none;stroke-opacity:1"
       id="rect3335"
       width="1200"
       height="900"
       x="0"
       y="0" />
    <path
       style="fill:none;stroke:#000000;stroke-width:2.43508172;stroke-miterlimit:4;stroke-dasharray:none;stroke-opacity:1"
       d="m 1079.1359,629.01643 0,-14.91512 c 0,-55.4 -44.6,-100 -100.00004,-100 -110.68789,0.42315 -260.43265,0.97677 -425.56594,1.3513"
       id="horizontalRight"
       inkscape:connector-curvature="0" />
    <path
       style="fill:none;stroke:#000000;stroke-width:2.43508172;stroke-miterlimit:4;stroke-dasharray:none;stroke-opacity:1"
       d="m 552.55977,514.44246 c -104.70221,0.23747 -215.59085,0.40294 -326.63295,0.41751 -58.2974,1.30245 -101.58669,-31.51767 -100.87241,-94.98034 l -0.62458,-82.53075"
       id="horizontalLeft"
       inkscape:connector-curvature="0" />
    <path
       style="fill:none;stroke:#000000;stroke-width:2.43508172;stroke-miterlimit:4;stroke-dasharray:none;stroke-opacity:1"
       d="m 125.43998,338.35904 -0.73223,-96.75498 c 0,-31.83348 26.76552,-57.63961 59.78246,-57.63961 33.01694,0 59.78246,25.80613 59.78246,57.63961 l 1.17121,107.08915 c -1.08076,32.60944 23.51966,60.02807 54.94658,61.24123 31.42692,1.21317 57.7796,-24.23855 58.86036,-56.84799 l 0.1329,-58.62525 0,-85.82073 c 0,-33.24 26.76,-60.00001 60,-60.00001 l 132.16973,0"
       id="verticleLeft"
       inkscape:connector-curvature="0" />
    <path
       style="fill:none;stroke:#000000;stroke-width:2.43508172;stroke-miterlimit:4;stroke-dasharray:none;stroke-opacity:1"
       d="m 552.56361,148.64046 133.75748,0 c 33.24,0 60,26.76001 60,60.00001 0,0 0.80159,52.84707 1.42857,122.96359 0.62698,70.11651 97.17146,73.51203 98.59636,150.7178 1.42489,77.20577 1.65162,163.92782 1.65162,163.92782 0.33272,55.399 44.6,100 100,100 l 32.14841,0 c 55.39995,0 99.99995,-44.6 99.99995,-100 l 0,-17.23324"
       id="verticalRight"
       inkscape:connector-curvature="0" />
  </g>
</svg>
