<?xml version="1.0" encoding="UTF-8" standalone="no"?>
<!-- Created with Inkscape (http://www.inkscape.org/) -->

<svg
   xmlns:dc="http://purl.org/dc/elements/1.1/"
   xmlns:cc="http://creativecommons.org/ns#"
   xmlns:rdf="http://www.w3.org/1999/02/22-rdf-syntax-ns#"
   xmlns:svg="http://www.w3.org/2000/svg"
   xmlns="http://www.w3.org/2000/svg"
   xmlns:sodipodi="http://sodipodi.sourceforge.net/DTD/sodipodi-0.dtd"
   xmlns:inkscape="http://www.inkscape.org/namespaces/inkscape"
   width="1202"
   height="902"
   viewBox="0 0 1202 902"
   id="svg2"
   version="1.1"
   inkscape:version="0.91 r13725"
   sodipodi:docname="map_pro.svg">
  <defs
     id="defs4" />
  <sodipodi:namedview
     id="base"
     pagecolor="#ffffff"
     bordercolor="#666666"
     borderopacity="1.0"
     inkscape:pageopacity="0.0"
     inkscape:pageshadow="2"
     inkscape:zoom="0.7"
     inkscape:cx="434.35714"
     inkscape:cy="579.10478"
     inkscape:document-units="px"
     inkscape:current-layer="layer1"
     showgrid="false"
     units="px"
     inkscape:window-width="2560"
     inkscape:window-height="1342"
     inkscape:window-x="0"
     inkscape:window-y="28"
     inkscape:window-maximized="1"
     fit-margin-top="0"
     fit-margin-left="0"
     fit-margin-right="0"
     fit-margin-bottom="0" />
  <metadata
     id="metadata7">
    <rdf:RDF>
      <cc:Work
         rdf:about="">
        <dc:format>image/svg+xml</dc:format>
        <dc:type
           rdf:resource="http://purl.org/dc/dcmitype/StillImage" />
        <dc:title></dc:title>
      </cc:Work>
    </rdf:RDF>
  </metadata>
  <g
     inkscape:label="Layer 1"
     inkscape:groupmode="layer"
     id="layer1"
     transform="translate(1,1)">
    <path
       style="fill:none;fill-rule:evenodd;stroke:#000000;stroke-width:0.37239945px;stroke-linecap:butt;stroke-linejoin:miter;stroke-opacity:1"
       d="m 615.7446,139.02153 c 0,0 31.72974,6.27952 59.13271,-4.70965 27.40293,-10.98921 87.97793,-50.23632 148.55293,-34.53751 60.575,15.69885 153.1048,57.33665 181.72486,161.69822 28.8453,105.18233 49.0615,242.45044 -49.03676,375.20263 -72.4349,98.02285 -196.6878,143.25787 -285.2886,161.71611"
       id="path3346"
       inkscape:connector-curvature="0" />
    <path
       style="fill:none;fill-rule:evenodd;stroke:#000000;stroke-width:0.37239945px;stroke-linecap:butt;stroke-linejoin:miter;stroke-opacity:1"
       d="m 662.05299,800.10253 c -41.94595,8.73862 -49.94037,8.33593 -66.62324,7.83149 C 543.50836,806.3641 363.22565,759.26761 306.97746,666.64436 249.52762,572.04239 178.61618,384.06496 197.36558,282.02244 216.11498,179.97987 237.7489,142.3026 311.30424,109.33505 c 84.5356,-37.88894 102.40056,-32.96763 186.05173,-6.2796 83.65116,26.68806 87.97797,39.24719 121.14998,37.67731"
       id="path3342"
       inkscape:connector-curvature="0" />
    <rect
       style="fill:none;fill-rule:evenodd;stroke:#000000;stroke-width:2;stroke-linecap:butt;stroke-linejoin:miter;stroke-miterlimit:4;stroke-dasharray:none;stroke-opacity:1"
       id="rect3335"
       width="1200"
       height="900"
       x="0"
       y="0" />
  </g>
</svg>
